<svg xmlns="http://www.w3.org/2000/svg" viewBox="0 0 1233.092 1635.974"><defs><filter id="bioicons-dropper-9418e809-c" width="1.029" height="1.071" x="-.015" y="-.036" color-interpolation-filters="sRGB"><feGaussianBlur stdDeviation="7.277"/></filter><filter id="bioicons-dropper-9418e809-b" width="1.138" height="1.106" x="-.069" y="-.053" color-interpolation-filters="sRGB"><feGaussianBlur stdDeviation="3.323"/></filter><filter id="bioicons-dropper-9418e809-d" width="1.266" height="1.078" x="-.133" y="-.039" color-interpolation-filters="sRGB"><feGaussianBlur stdDeviation="1.486"/></filter><filter id="bioicons-dropper-9418e809-a" color-interpolation-filters="sRGB"><feFlood flood-color="#000" flood-opacity=".498" result="flood"/><feComposite in="flood" in2="SourceGraphic" operator="in" result="composite1"/><feGaussianBlur in="composite1" result="blur" stdDeviation="3"/><feOffset dx="4" dy="4" result="offset"/><feComposite in="SourceGraphic" in2="offset" result="composite2"/></filter></defs><g filter="url(#bioicons-dropper-9418e809-a)" transform="translate(447.06 -217.422)"><ellipse cx="-403.758" cy="1410.158" fill="maroon" rx="21.92" ry="24.042"/><path fill-rule="evenodd" stroke="#000" stroke-width="1.23" d="m406.169 498.42 98.865 98.866c-1.155 22.416-13.039 31.689-32.132 32.131l-98.865-98.865c2.245-26.549 16.132-31.316 32.132-32.131z"/><path fill="#f9f9f9" fill-rule="evenodd" stroke="#000" stroke-width="1.23" d="m381.1 537.614-674.759 674.758c-31.932 31.933-57.436 113.93-57.436 113.93l-64.263 64.264 28.247 28.247 64.263-64.263s81.998-25.504 113.93-57.436l674.759-674.759z"/><path fill-rule="evenodd" stroke="#000" stroke-width="1.23" d="M413.23 505.483s142.694-209.94 242.928-271.175c23.543-14.383 51.058-19.168 71.089-14.594 28.328 6.468 50.026 28.166 56.494 56.494 4.574 20.03-.211 47.545-14.595 71.089-61.235 100.233-271.174 242.927-271.174 242.927z"/><path fill="maroon" fill-rule="evenodd" stroke="#000" stroke-width="1.23" d="m-117.647 1036.361-176.012 176.012c-31.932 31.933-57.437 113.93-57.437 113.93l-64.262 64.264 28.246 28.246 64.264-64.262s81.997-25.505 113.93-57.438l260.751-260.752z"/><path fill="#fff" fill-rule="evenodd" d="M-291.328 1241.867s-27.882 53.977-41.941 75.438c-20.461 31.235-74.61 81.782-74.61 81.782l-8.486-9.314s58.943-45.331 70.468-74.468l23.456-59.296z" filter="url(#bioicons-dropper-9418e809-b)"/><path fill="#fff" fill-rule="evenodd" d="M125.657 332.362H160v680l-34.343-40z" filter="url(#bioicons-dropper-9418e809-c)" transform="rotate(45 189.708 888.694)scale(.61231 1.5229)"/></g><path fill="maroon" fill-rule="evenodd" stroke="#000" d="M51.079 1257.79s-33.63 55.522-28.284 84.853c1.743 9.56 9.61 18.45 18.385 22.627 6.385 3.04 14.728 2.818 21.213 0 8.871-3.855 17.855-11.738 19.799-21.213 6.145-29.945-31.113-86.267-31.113-86.267z"/><path fill="#fff" fill-rule="evenodd" d="m-386.08 1452.585-32.527 70.024c2.47 19.657 8.869 28.833 22.627 18.385z" filter="url(#bioicons-dropper-9418e809-d)" transform="rotate(6.534 1870.937 4080.802)scale(.66045 1.0155)"/><path fill="maroon" fill-rule="evenodd" stroke="#000" d="M41.079 1395.79s-33.63 55.522-28.284 84.853c1.743 9.56 9.61 18.45 18.385 22.627 6.385 3.04 14.728 2.818 21.213 0 8.871-3.855 17.855-11.738 19.799-21.213 6.145-29.945-31.113-86.267-31.113-86.267z"/><path fill="#fff" fill-rule="evenodd" d="m-386.08 1452.585-32.527 70.024c2.47 19.657 8.869 28.833 22.627 18.385z" filter="url(#bioicons-dropper-9418e809-d)" transform="rotate(6.534 657.072 4062.18)scale(.66045 1.0155)"/><g fill-rule="evenodd"><path fill="maroon" stroke="#000" d="M31.079 1525.79s-33.63 55.522-28.284 84.853c1.743 9.56 9.61 18.45 18.385 22.627 6.385 3.04 14.728 2.818 21.213 0 8.871-3.855 17.855-11.738 19.799-21.213 6.145-29.945-31.113-86.267-31.113-86.267z"/><path fill="#fff" d="m-386.08 1452.585-32.527 70.024c2.47 19.657 8.869 28.833 22.627 18.385z" filter="url(#bioicons-dropper-9418e809-d)" transform="rotate(6.534 -486.71 4039.605)scale(.66045 1.0155)"/></g></svg>
