<svg xmlns="http://www.w3.org/2000/svg" xml:space="preserve" viewBox="0 0 1000 1000"><style>.st0{display:none}.st1{display:inline}.st5{fill:#82bf64}.st6{fill:#71b065}.st8{fill:#65b16e}.st11{fill:#020202}.st12{fill:#e5df72}.st13{fill:#eae484}.st15{fill:#fdfdd2}.st16{fill:#dede49}.st17{fill:#f7f2ad}.st18{fill:#e0df5a}.st19{fill:#f0ea93}.st20{fill:#f6f0a2}.st21{fill:#f4ee9c}.st22{fill:#d8dd30}.st24{fill:#a7cf56}.st25{fill:#b6d447}.st26{fill:#abd051}.st27{fill:#b0d24d}.st28{fill:#b8dd54}.st29{fill:#f0fdd2}.st30{fill:#c5e04b}.st31{fill:#c2d73a}.st32{fill:#d7e03b}.st33{fill:#d1e143}.st34{fill:#839a06}.st35{fill:#fbee3c}.st37{fill:#b35105}.st38{fill:#ac4c05}.st39{fill:#7a3702}.st40{fill:#b75407}.st42{fill:#6a3101}.st43{fill:#ea9834}.st44{fill:#9d4504}.st45{fill:#dd8124}.st47{fill:#87390a}.st48{fill:#bf5d0d}.st49{fill:#cf7019}.st50{fill:#502604}.st51{fill:#f4bf83}.st52{fill:#a26b2c}.st53{fill:#a16a2c}.st54{fill:#a26c2d}.st55{fill:#fddf91}.st56{fill:#683d06}.st57{fill:#603f12}.st58{fill:#512a03}.st59{fill:#502902}.st60{fill:#693e06}.st61{fill:#9e682a}.st62{fill:#fbdd90}.st63{fill:#fcba1e}.st64{fill:#d9c295}.st65{fill:#030302}.st66{fill:#333}.st67{fill:#ff5302}.st68{fill:#fff595}.st70{fill:#fcc866}.st72{fill:#f9f8eb}.st73{fill:#f48447}.st74{fill:#ea6c42}.st76{fill:#fafaed}.st78{fill:#a58a4f}.st79{fill:#97804f}.st80{fill:#9fc751}.st81{fill:#9f6929}.st82{fill:#a06a29}.st83{fill:#683c01}.st84{fill:#fee092}.st85{fill:#a16a29}.st86{fill:#a1cc54}.st87{fill:#fdbb16}.st88{fill:#54a845}.st90{fill:#95c55c}.st91{fill:#94b767}.st92{fill:#95c45f}.st94{fill:#90c654}.st95{fill:#467f03}.st97{fill:#3c6c02}.st98{fill:#182b03}.st99{fill:#284703}.st100{fill:#94bf61}.st101{fill:#8547a3}.st102{fill:#a3ca52}.st103{fill:#92ac6d}.st106{fill:#acce4d}.st109{fill:#b9d443}.st110{fill:#c6da37}.st111{fill:#90a66e}.st113{fill:#ecf9cd}.st115{fill:#c1d83c}.st116{fill:#94b569}.st119{fill:#f5f5ef}.st120{fill:#aed555}.st121{fill:#c4df4b}.st122{fill:#b5d752}.st123{fill:#d1e042}.st124{fill:#d0dc28}.st127{fill:#e0be91}.st129{fill:#ffffe5}.st134{fill:#f4e3c2}.st135{fill:#f3e1c0}.st136{fill:#f8ebcc}.st137{fill:#e8cca4}.st139{fill:#f6e9ca}.st140{fill:#f3e2c1}.st141{fill:#f6e6c6}.st143{fill:#faf8e9}.st144{fill:#030202}.st145{fill:#ffefc9}.st146{fill:#feeec8}.st147{fill:#e1c092}.st148{fill:#dfc9a2}.st150{fill:#fff3d6}.st151{fill:#e4c59b}.st152{fill:#e9d0a6}.st154{fill:#eed5ae}.st155{fill:#f3dcb8}.st158{fill:#e6c99e}.st160{fill:#ecd4ab}.st162{fill:#f2dbb7}.st163{fill:#efd7b0}.st164{fill:#f3dbb7}.st165{fill:#e0bf92}.st167{fill:#feefc9}.st168{fill:#fdeec8}.st169{fill:#dfbe91}.st170{fill:#ddbc8f}.st171{fill:#dcbc8f}.st172{fill:#e8caa0}.st176{fill:#fceac7}.st177{fill:#fae6c3}.st178{fill:#eacea5}.st179{fill:#efd6ae}.st180{fill:#edd2aa}.st182{fill:#fff0cc}.st183{fill:#feeeca}.st184{fill:#f7e2bd}.st187{fill:#debd91}.st189{fill:#fffee3}.st190{fill:#feeecc}.st194{fill:#f7e0bd}.st195{fill:#f2dab5}.st196{fill:#f0d8b2}.st197{fill:#e9cfa5}.st198{fill:#e7cba1}.st200{fill:#ecd3ab}.st202{fill:#f4dcb8}.st205{fill:#fbf2d6}.st206{fill:#fff7dc}.st207{fill:#faefd0}.st208{fill:#f7edca}.st212{fill:#fffae0}.st213{fill:#fffbe1}.st214{fill:#fdf4d7}.st215{fill:#fffde4}.st219{fill:#fff8da}.st221{fill:#fdebc9}.st222{fill:#fffde1}.st225{fill:#e8cba1}.st226{fill:#f1d8b3}.st227{fill:#fffbde}.st229{fill:#efd6b0}.st237{fill:#dab687}.st238{fill:#f4e3bb}.st239{fill:#e2c397}.st240{fill:#eed2a6}.st245{fill:#f9f7e7}.st246{fill:#a9a08f}.st247{fill:#f3e7a3}.st248{fill:#f9f2cc}.st249{fill:#efdf87}.st250{fill:#f5eaae}.st251{fill:#e5d054}.st252{fill:#f7efc0}.st253{fill:#e9d76d}.st255{fill:#e0dcd4}.st256{fill:#f0e08e}.st257{fill:#f2e59b}.st259{fill:#585858}.st260{fill:#030303}.st261{fill:#252525}.st263{fill:#fbfbfb}.st264{fill:#fafafa}.st265{fill:#f9f9f9}.st267{fill:#6d6d6d}.st268{fill:#838383}.st271{fill:#aba392}.st272{fill:#36342e}.st273{fill:#5b574e}.st274{fill:#8a8376}.st275{fill:#040403}.st276{fill:#9e9687}.st277{fill:#1b1a18}.st278{fill:#423f38}.st279{fill:#e2cc47}.st280{fill:#f8f6e7}.st281{fill:#5c84bb}.st282{fill:#f2eecd}.st283{fill:#ebd86d}.st284{fill:#e7d35b}.st285{fill:#f0e5a3}.st286{fill:#e8d986}.st287{fill:#f0e9be}.st288{fill:#fff}.st289{fill:#f8f6e4}.st290{fill:#f7f4dd}.st293{fill:#aba292}.st294{fill:#1e1c1a}.st295{fill:#0e0e0c}.st296{fill:#898375}.st297{fill:#5c574e}.st298{fill:#e5cd45}.st299{fill:#f5f4e6}.st300{fill:#5d85bc}.st301{fill:#f6f1d6}.st302{fill:#f0e6b0}.st303{fill:#e7d04d}.st304{fill:#ead766}.st305{fill:#f1ecc9}.st306{fill:#f2eabd}.st307{fill:#e7d989}.st308{fill:#ecdb76}.st309{fill:#e9dd98}.st310{fill:#5d84bb}.st311{fill:#aba393}.st312{fill:#181715}.st313{fill:#0e0d0c}.st314{fill:#1c1a18}.st315{fill:#686359}.st316{fill:#45413a}.st317{fill:#9d9687}.st318{fill:#38352f}.st319{fill:#f7f5e5}.st320{fill:#e4cd46}.st321{fill:#5e86bd}.st322{fill:#f4f0d5}.st323{fill:#f2eed1}.st324{fill:#e8e6d8}.st325{fill:#f2ebc5}.st326{fill:#e9d356}.st327{fill:#f2ebbf}.st328{fill:#eade99}.st329{fill:#e9db83}.st330{fill:#ebd96d}.st332{fill:#07d0cd}.st333{fill:#a30902}.st334{fill:#027696}.st335{fill:#a2042e}.st336{fill:#e5ce45}.st337{fill:#5b83bb}.st339{fill:#ffcfdb}.st340{fill:#ede199}.st341{fill:#5c84bc}.st342{fill:#f6eec5}.st343{fill:#f5f0d2}.st344{fill:#edde8b}.st346{fill:#c7fefe}.st347{fill:#f2e8b2}.st348{fill:#c8ded7}.st350{fill:#e8d2ab}.st351{fill:#e6cda4}.st353{fill:#eeddba}.st355{fill:#fdf8db}.st356{fill:#9f9e82}.st357{fill:#a1a88e}.st358{fill:#957f63}.st360{fill:#9d977a}.st361{fill:#9b9174}.st362{fill:#9b8b6f}.st365{fill:#9da489}.st366{fill:#5a5d4e}.st367{fill:#9aa088}.st368{fill:#737765}.st369{fill:#998a6e}.st370{fill:#6e7261}.st371{fill:#8d755a}.st372{fill:#90775a}.st373{fill:#373c29}.st374{fill:#9d9578}.st375{fill:#505444}.st376{fill:#97856a}.st377{fill:#786851}.st378{fill:#636252}.st379{fill:#959b84}.st380{fill:#948e73}.st381{fill:#3a3c33}.st382{fill:#666959}.st383{fill:#8a7155}.st384{fill:#454938}.st385{fill:#c46f09}.st386{fill:#adac9a}.st387{fill:#9e997c}.st388{fill:#9fa68c}.st389{fill:#8e7559}.st391{fill:#947d60}.st392{fill:#9b9074}.st393{fill:#99876b}.st394{fill:#060504}.st396{fill:#9fa58c}.st397{fill:#958065}.st398{fill:#9da28a}.st399{fill:#5c5e51}.st400{fill:#3b3d34}.st402{fill:#636657}.st403{fill:#9ea084}.st404{fill:#525448}.st405{fill:#969a82}.st406{fill:#726957}.st407{fill:#968f74}.st408{fill:#808570}.st409{fill:#424538}.st410{fill:#c87209}.st411{fill:#393e2b}.st412{fill:#8a7f61}.st413{fill:#817059}.st414{fill:#595c4e}.st415{fill:#727664}.st416{fill:#4d5046}.st417{fill:#b5b3a1}.st418{fill:#323823}.st419{fill:#877d63}.st420{fill:#a68c46}.st421{fill:#8c805d}.st422{fill:#968455}.st423{fill:#c28128}.st424{fill:#7d5922}.st425{fill:#81795f}.st426{fill:#9a8553}.st427{fill:#a38b48}.st428{fill:#9e8750}.st429{fill:#bb842f}.st430{fill:#ab8d42}.st431{fill:#8f7b49}.st432{fill:#060502}</style><g id="bioicons-adult-male-atlantic-horseshoe-crab-4b58f763-----_30"><g><path d="M373.2 407.87c-5.36 2.65-9.35 6.64-13.35 10.58-1.47 1.45-2.8 3.04-5.12 1.96-2.19-1.02-2.28-3.05-2.21-5.12.09-2.78 1.29-5.16 2.69-7.43 7.74-12.44 14.82-25.2 19.76-39.06.68-1.92 1.44-3.44.29-5.58-1.72-3.23-.37-6.8.24-11.56-8.33 9.41-13.78 18.98-18.41 29.1-3.85 8.42-4.97 17.54-7.09 26.41-.93 3.89-1.81 7.95-6.02 10.26-3.59 1.98-6.28 1.16-8.82-1.49-3.15-3.27-5.37-7.14-7.35-11.21-17.24-35.44-29.2-72.52-33.46-111.77-6.09-56.13 2.8-109.18 34.58-157.03 15.5-23.33 35.17-42.59 58.62-57.86 14.49-9.43 31.01-13.81 47.74-16.71 48.43-8.4 96.7-8.14 144.75 3.45 22.78 5.49 41.4 17.78 58.28 33.27 38.08 34.94 59.92 78.38 66.74 129.41 7.11 53.19-2.49 104.05-22.31 153.35-3.41 8.48-7.38 16.73-11.15 25.07-1.59 3.5-3.67 6.73-6.31 9.54-4.62 4.91-10.1 3.94-13.12-2.04-2.6-5.15-3.25-10.75-4.23-16.28-2.55-14.28-13.53-35.62-23.11-44.45.38 4.51 1.44 8.77-.92 12.71-.24.41.12 1.31.41 1.88 4.74 9.31 7.03 19.74 13.22 28.43 3.08 4.32 5.43 9.15 8.12 13.75 1.11 1.91 1.74 3.95 1.83 6.16.08 2.1-.24 4.09-2.51 4.95-2.1.79-3.42-.55-4.7-1.95-3.73-4.07-8.11-7.38-12.83-10.71-.55-.01-.76-.01-.98.3 1.85 7.81 6.39 14.13 9.19 21.22.99 2.51 1.88 4.91.89 7.7-1.63 4.59-4.22 5.28-7.55 1.75-2.49-2.65-5.14-5.07-8.49-7.36-1.2 3.74-.1 6.81.9 9.89 1.54 4.74 3.24 9.44 4.57 14.25.76 2.76.98 5.83-2.18 7.49-3.43 1.81-4.58-1.22-6.25-3.21-1.83-2.18-3.33-5.33-7-1.88-1.5 1.41-1.9 2.26-1.07 4.09 1.92 4.24 3.7 8.54 5.42 12.87 1.12 2.8 1.46 5.65-1.62 7.51-2.84 1.71-4.92.11-7.08-1.74-1.47-1.26-2.88-4.79-4.69-3.09-2.35 2.22-6.48 4.5-3.76 9.48 1.8 3.3 3.14 6.99 3.49 10.86.22 2.43-.09 4.86-2.59 5.99-2.58 1.18-4.37-.24-5.89-2.34-.96-1.34-2.15-2.59-3.47-3.58-1.07-.81-1.61-3.48-3.79-1.56-1.66 1.46-2.9 2.87-1.66 5.53 2.1 4.51 3.69 9.26 5.52 13.9.76 1.92 1.05 3.91.33 5.86-.58 1.59-1.56 2.98-3.5 3.16-1.69.16-2.92-.63-3.72-2.02-2.47-4.27-6.43-7.1-9.9-10.8-2.69 3.54-3.85 7.66-6.96 10.52-2.88 2.64-5.97 4.41-9.92 3.21-3.98-1.22-5.56-4.39-6.12-8.31-1.41-9.92-5.75-18.67-10.84-27.14-1.84-3.06-2.86-4.29-5.57-.4-2.88 4.13-4.39 8.16-4.58 13.24-1.38 37.62-3 75.24-4.57 112.85-1.87 44.94-3.79 89.88-5.64 134.82-1.48 35.95-2.89 71.91-4.34 107.86-1.1 27.3-2.21 54.6-3.31 81.9-.02.5-.05 1-.1 1.5-.74 7.97-4.27 11.81-10.77 11.74-6.47-.07-9.99-3.9-10.5-11.99-.54-8.48-.77-16.97-1.11-25.46-1.46-36.62-2.87-73.24-4.38-109.86-1.82-44.28-3.73-88.55-5.56-132.82-1.5-36.45-2.92-72.91-4.41-109.36-.9-21.97-1.88-43.94-2.82-65.91-.2-4.78-4.08-7.45-6.45-10.94-1-1.47-1.9.62-2.4 1.4-5.23 8.17-9.7 16.67-11.42 26.37-.23 1.31-.44 2.63-.76 3.92-1.7 6.8-8.27 9.01-13.99 4.85-4.1-2.98-5.78-7.62-8.44-11.86-3.57 2.95-6.91 5.94-9.46 9.63-1.46 2.1-2.84 4-5.55 2.68-2.6-1.27-3.15-3.87-2.56-6.46 1.19-5.21 3.42-10.06 5.54-14.94.46-1.06 1.12-2.17 1.14-3.26.03-1.84-1.56-2.94-2.86-3.83-1.24-.86-1.96.71-2.69 1.43-1.55 1.51-3.05 3.08-4.4 4.76-1.41 1.74-3.06 2.64-5.22 1.83-2.16-.82-2.82-2.72-2.85-4.84-.06-4.12 1.37-7.99 3.31-11.39 2.82-4.94-1.01-7.27-3.24-10.19-1.37-1.79-2.22.42-3.07 1.11-2.71 2.21-4.88 6.42-9.18 3.5-4.45-3.02-1.44-6.9-.25-10.33 1.09-3.14 2.29-6.29 3.93-9.16 1.62-2.85.33-3.9-1.84-5.46-2.48-1.78-3.51-.38-4.78 1.24-.41.52-.92.97-1.32 1.5-1.46 1.99-2.66 4.63-5.86 3.14-3-1.39-3.23-4.18-2.51-6.87 1.35-4.97 3-9.85 4.58-14.76 1.01-3.12 2.17-6.21 1.01-10.15a55 55 0 0 0-8.67 7.58c-3.1 3.34-5.6 2.6-7.29-1.72-1.09-2.78-.41-5.23.7-7.69 3.08-6.81 6.21-13.6 9.3-20.77 0-.6-.01-.8-.32-1.01" class="st260"/><path d="M545.07 454.67c-.95 1.53-2.36 2.57-2.72 3.89-1.74 6.29-5.35 5.7-10.4 3.88-5.74-2.07-11.87-3.09-17.85-4.46-1.5-.34-2.94-.38-3.26-2.36-.26-1.65-1.28-2.72-3.08-2.63-1.89.1-3.05 1.3-3.69 2.92-1.27 3.19-2.41 6.44-4 10.73-1.52-4-2.7-7.11-3.89-10.21-.69-1.81-1.76-3.28-3.85-3.42-2.09-.15-2.89 1.23-3.22 3.06-.32 1.77-1.8 1.67-3.09 1.88-7.4 1.19-14.6 3.2-21.67 5.63-2.75.94-4.32.71-5.27-2.26-.49-1.54-1.43-3.02-2.45-4.3-2.04-2.56-4.66-4.03-7.81-2.05-3.05 1.93-3.27 4.82-1.75 7.88 2.03 4.07 3.94 8.12 1.77 13.11-4.61-.61-7.23-4.88-6.94-11.14.13-2.83-.07-5.57-.4-8.39-.8-6.89-3.67-13.11-5.53-19.65-.64-2.26-2.3-5.45.53-6.76 2.93-1.35 4 2.11 5.33 4.05 2.69 3.94 4.64 8.35 7.37 12.56 1.45-1.39.63-2.47.35-3.43-2.1-7.37-4.51-14.62-8.06-21.46-7-13.43-13.4-27.15-19.5-41.02-1.58-3.59-3.68-6.68-7.28-8.57-1.97-1.04-3.31-2.75-4.34-4.7-1.54-2.95-3.34-5.76-4.93-8.68-.95-1.74-1.97-3.77-4.32-3.65-2.38.12-2.37 2.43-2.96 4.09-.34.95-.69 1.89-2.12 2.13-2.87-3.04-2.64-6.06-1.66-9.69 2.02-7.52 6.43-14.11 8.18-22.11 4.07-2.8 7.47.12 11.48.9 1.94 1.41 3.43 2.82 5.67 2.58 10.7-1.13 20.81 2.22 31.02 4.38 14.98 3.16 30.02 6.18 44.46 11.5 3.55 1.31 7.18.88 10.78-.33 21.54-7.24 43.79-11.47 66.06-15.6 2.31-.43 4.65-.36 6.97-.03 2.29.33 4.3-.12 6.3-2.03 3.94-1.54 7.47-3.27 11.78-2.04 1.99 8.28 6.62 15.17 8.68 23.06.84 3.24 1.28 6.04-1.18 9.03-3.32.29-2.47-2.36-2.99-3.99-1.33-4.12-4.17-5.13-6.19-1.53-4.84 8.61-11.93 15.3-17.8 22.99-4.29 5.62-5.93 12.96-9.1 19.36-5.09 10.29-10.47 20.44-15.14 30.91-3.69 8.18-5.47 17.09-8.29 25.97" class="st419"/><path d="M593.02 176.31c-2.23-4.39-5.07-7.36-10.59-7.02-2.91-1.86-4.8-4.03-4.07-7.83.82-1.28 1.77-1.78 3.08-2.46 5-3.74 5.65-11.92 1.59-15.88-5.66-5.53-12.41-9.46-19.31-13.17-2.81-1.51-5.65-2.89-7.01-6.06-.65-1.51-1.95-2.2-3.51-2.5-.98-.19-1.98-.58-2.94-.52-12.9.89-25.45-2.09-38.13-3.54-15.78-1.81-31.16.56-46.56 3.23-4.52.78-8.95-.46-13.43-.1-4.03.33-7.96.59-9.98 5.12-.98 2.2-3.45 3.01-5.49 4.13-6.85 3.78-13.68 7.56-19.3 13.17-4.19 4.18-4.38 10.94.17 15.96 1.33.59 2.09 1.3 2.98 2.43 2.35 3.58-.37 5.42-2.26 7.8-5.33-.22-8.77 1.88-10.81 6.84-2.07 1.74-5.02 1.43-6.4 4.24-1.4 2.01-3.1 3.2-5.14 4.48-2.79.62-4.7 1.92-6.24 4.34-.4.41-.57.57-1.04.91-5.8 4.36-10.46 9.43-12.88 15.87-3.8 10.12-8.26 19.93-12.59 29.81-.86 1.96-1.9 3.91-1.41 6.56-.78 5.18-2.99 9.47-5.27 14.11-4.46 1.8-5.7 1.01-5.64-3.23.05-3.35 1.43-6.33 2.76-9.3-1.62 3.58-3.26 6.35-8.18 4.02-3.09-1.46-4.35 1.38-4.94 3.94-2.72 11.8-6.26 23.4-8.42 35.33-.35 1.96-.79 3.91-1.54 5.76-.64 1.58-1.36 3.13-3.91 2.44-2.95-5.87-3.07-11.84-2.49-18.29 3.94-3.8 3.97-8.69 5.23-13.1 6.3-22.07 9.58-44.95 17.92-66.49 3.65-9.41 10.27-16.66 16.47-24.26 4.42-5.42 8.97-10.74 13-16.47 1.86-2.65 4.1-4.73 7.16-6 3.93-1.63 6.71-4.85 9.87-7.54 4.94-4.21 9.65-8.7 14.77-12.7 2.9-2.26 3.98-4.63 2.19-8.15-1.4-2.75-1.21-5.83-.88-8.84.19-1.75.9-3.24 2.68-3.89 1.95-.72 3.81-.22 4.91 1.42 2.39 3.57 5.83 4.09 9.65 3.84 6.31-.42 12.63-.43 18.93.02 13.57.96 26.89-1.24 40.23-3.16 13.2-1.9 26.31-.94 39.23 1.63 11.28 2.24 22.57 1.57 33.85 1.24 4.85-.14 9.62.52 14.44.34 3.31-.13 6.22-.52 8.41-3.38 1.27-1.65 3.12-2.62 5.3-1.85 2.26.79 2.62 2.82 2.75 4.88.2 3.03 0 6-1.36 8.79-1.31 2.69-.48 4.76 1.72 6.59 7.05 5.84 13.27 12.95 20.89 17.79 16.34 10.39 25.33 26.97 36.72 41.43 7.15 9.07 9.05 21.06 11.98 32.11 3.88 14.62 6.9 29.48 10.76 44.13.96 3.63.91 7.71 4.44 10.77 1.85 6.76.37 12.93-1.45 19.42-3.79 2.3-4.2-.76-4.8-2.78-1.14-3.82-1.7-7.8-2.57-11.7-2.15-9.59-4.94-19.01-7.23-28.55-1.08-4.52-1.76-4.88-6.04-3.18-1.3.51-2.54.58-3.92.21-.69 3.03 1.99 6.17-.6 8.68-1.2 1.16-2.84.4-4.56-.41-2.83-4.68-4.48-9.5-6.02-14.74.71-3.94-1.36-6.78-2.6-9.78-3.75-9.02-8.25-17.71-11.33-27.05-2.13-6.48-7.12-11.08-12.44-15.68-.46-.34-.64-.48-1.05-.86-1.34-1.82-2.5-3.33-4.93-3.68-2.57-1.09-4.12-2.98-6.15-4.76-.68-.88-1.05-1.6-2.04-2.15-.44-.24-.61-.33-1.04-.59-1.13-1.02-2.32-1.35-3.59-2.14" class="st420"/><path d="M543.56 268.34c-.28-.63-.42-.97-.38-1.28.65-5.52-4.8-9.67-3.76-15 .97-4.93 3.79-9.28 2.68-14.87-1.69-8.56-5.12-16.47-7.9-24.63-.85-2.5-1.92-4.84.05-7.51 1.3-1.76 1.05-4.03-1.44-4.87s-3.91.9-4.27 2.99c-.68 3.96-1.83 7.77-.09 12.03 2.95 7.22 5.04 14.78 7.61 22.15 1.36 3.9-.24 7.45-2.06 10.32-2.66 4.19-1.58 7.71.16 11.91-1.7 2.07-3.36 1.01-4.88.04-6.31-4.03-12.2-8.64-18.06-13.29-2.23-1.77-3.45-3.96-2.34-6.99.69-1.86-.16-2.87-2.54-2.77-.58-.04-.81-.08-1.34-.31-1.51-2.04-1.75-4.8-4.85-4.84-2.76-.04-3.61 1.94-4.62 4.3-.39.43-.59.56-1.13.77-2.51-.04-4.19.42-3.22 3.13 1.11 3.12-.46 5.18-2.64 6.9-5.62 4.44-11.25 8.88-17.29 12.74-1.73 1.1-3.66 2.73-5.49-.12 3.05-5.84.32-10.73-1.54-15.72-.96-2.58-.77-4.95.24-7.64 2.79-7.47 5.04-15.14 7.69-22.66 1.39-3.93-.27-7.43-1.14-11.02-.46-1.88-2.14-2.58-3.98-1.92-1.93.7-2.62 2.69-1.62 4.07 2.86 3.89.63 7.28-.54 10.77-2.52 7.54-5.71 14.83-7.07 22.8-.74 4.33.49 7.9 1.97 11.52 1.21 2.99 1.32 5.42-.34 8.36-1.6 2.83-2.86 6.03-2.69 9.91-8.79 7.33-18.7 11.91-29.24 15.21-1.82.57-3.78.17-5.24-1.01-3.48-2.81-5.89-1.52-8.4 1.48-1.64 1.97-3.45 4.29-6.99 2.99.25-4.3-.28-8.48 1.24-12.85 4.76-2.6 7.69-6.82 11.22-10.21 10.43-10 21.39-19.45 31.28-30.01 1.48-1.58 2.96-3.15 4.1-5.01 1.42-2.31 3.02-4.72.34-7.13-2.48-2.23-5.27-3.57-8.61-1.67-1.45.82-2.69 1.95-4.1 2.83-4.47 2.76-6.16 1.86-6.53-3.48-.05-.66-.01-1.33.01-2.36.07-.86.15-1.35.38-2.18 2.12-5.34 6.36-8.01 10.75-10.44 4.07-2.25 8.28-4.25 12.55-6.12 4.83-2.12 8.93-5.15 11.19-10.15.71-1.56 1.73-2.83 3.22-3.7 2.3-1.35 4.32-3.1 6.66-4.4 17.78-9.87 30.72-8.48 46.35 5 .38.33.88.61 1.05 1.05 3.6 8.98 11.83 12.06 19.74 15.61 3.8 1.7 7.42 3.75 10.8 6.21 4.66 3.38 6.77 9.05 5.54 14.51-.59 2.6-1.92 3.35-4.3 2.13-2.22-1.14-4.15-2.79-6.49-3.7-2.2-.86-4.3-.9-5.83 1.2-1.39 1.91-.05 3.34.97 4.91 2.68 4.15 6.74 6.85 10.25 10.13 7.29 6.83 13.25 14.93 20.66 21.64 4.06 3.68 8.2 7.28 11.86 11.82 2.08 5.05-.7 10.51 2.19 15.74-3.37 2.55-5.32-.15-7.03-2.16-2.66-3.14-5.13-4.46-8.81-1.54-1.94 1.54-4.42 1.33-6.72.51-9.61-3.44-18.72-7.83-27.24-14.12" class="st421"/><path d="M505.64 236.81c1.27-2.11 3.02-2.22 4.47-1.29 1.59 1.02.72 2.65.11 4.03-.59 1.33-1.73 2.74-.13 4.04 7.4 6.02 14.37 12.67 23.75 16.4 3.01 3.35 3.47 7.13 2.72 11.23-1.31 7.16-2.37 14.38-3.81 21.51-.64 3.16.67 5.86 1.15 8.76.42 2.53.2 3.79-3.02 2.67-4.85-1.69-9.89-2.83-14.84-4.27-2.91-.85-5.75-1.2-7.2-4.99-1.11-2.91-3.62-1.93-5.13.75-1.48 2.63-.67 7.64-3.9 7.72-2.47.06-2.15-4.98-3.48-7.57-.63-1.23-1.28-2.44-2.82-2.47-1.49-.03-2.73.86-2.91 2.26-.36 2.89-2.55 3.11-4.62 3.69-5.75 1.63-11.53 3.16-17.22 4.99-2.38.76-3.47.09-2.7-2.1 3.52-9.98-1.04-19.31-2.37-28.83-.71-5.04-.1-9.49 1.89-14.27 1.5 1.55 2.74.82 4.05-.14 6.11-4.48 12.27-8.89 18.33-13.43 2.05-1.53 3.79-3.33 1.72-6.21-.78-1.08-1.21-2.61-.04-3.63 1.23-1.08 2.76-.83 4.31.48.94 2.99.62 5.88 2.09 8.37.99 1.67 1.66 3.81 4.07 3.73 2.11-.07 2.84-1.96 3.69-3.54 1.3-2.36 1.64-4.94 1.84-7.89" class="st419"/><path d="M545.32 454.98c-1.79-1.12-1.23-2.51-.81-4.01 4.91-17.51 12.4-33.93 20.96-49.89 4.48-8.34 6.92-17.66 12.26-25.58.55-.82.96-1.98 1.75-2.38 6.89-3.47 9.49-10.3 13.08-16.37 1.56-2.65 3.56-5.83 6.65-5.19 3.51.73 3.82 4.55 3.88 7.83.01.45.38.89.92 1.58.25.94.17 1.65-.01 2.7-1.53 2.79-2.45 5.09 1.85 6.09 2.11 2.35 2.93 5.01 4.02 7.9-3.28 2.87-5.22 6.26-6.38 10.21-.8 2.71-1.88 5.34-3.19 7.85-.55 1.05-1.39 1.99-2.78 1.55-1.1-.35-1.25-1.4-1.46-2.4-.3-1.46 1.05-3.93-1.35-4.13-2.45-.2-2.84 2.48-3.45 4.28-5.17 15.12-9.92 30.44-16.57 44.94-5.4 11.76-5.86 24.92-11.66 36.43-1.61 3.2-2.22 7.05-6.07 8.92-1.57-2.1-2.72-4.11-4.03-6.01-3.19-4.64-3.64-9.38-.95-14.41 1-1.88 2.12-3.78 1.88-6.45 2.15-6.33 2.36-12.8 5.02-18.68-2.97 5.3-5.81 10.65-11.62 13.96-.73.56-1.2.88-1.94 1.26" class="st421"/><path d="M591.58 269.58c-5.77-.77-7.98-6.25-11.81-9.63-7.82-6.91-14.6-14.98-21.9-22.49-3.56-3.67-7.98-6.43-10.91-10.81-1.27-1.9-2.82-3.41-1.21-5.7 1.68-2.4 3.96-3.8 6.85-2.46 2.7 1.25 5.23 2.89 7.75 4.49 1.56.99 2.26.91 2.65-1.09 1.13-5.83-.86-10.73-5.95-14.18-5.12-3.47-10.6-6.3-16.34-8.52-5.89-2.28-10.21-5.88-12.81-11.72-1.58-3.53-5.48-4.67-8.47-6.49-4.51-2.74-9.62-4.49-14.41-6.81-5.8-2.81-10.68.43-15.69 2.33-5.61 2.13-10.61 5.47-15.61 8.74-.54.35-1.18.84-1.36 1.39-2.39 7.46-8.61 10.35-15.05 13.41-7.26 3.45-15.3 6.02-20.04 13.82-.68.57-1.15.73-2.06.51-.66-.59-.81-1.08-.74-1.98 2.37-8.6 9.11-12.26 15.91-15.91 5.28-2.83 10.34-6.05 15.13-9.65 3.22-2.42 5.97-5.32 7.92-8.87 1.72-3.11 1.63-5.96-1.26-8.51-5.14-4.53-6.42-4.94-10.34-2.41-4.19 2.71-8.33 5.53-12.79 7.77-2.19 1.1-4.97 2.5-6.52-.6-1.37-2.76.66-4.77 2.93-6.09 4.61-2.68 9.48-4.76 14.51-6.6 9.83-3.6 19.72-7.08 29.54-11.69 2.48-.22 3.45 1.4 4.63 2.73 4.08 4.56 7.63 4.52 11.81-.16.98-1.1 1.86-2.3 3.76-2.67 9.38 4.71 19.15 7.56 28.58 11.21 4.81 1.86 9.65 3.6 14.21 6.03 1.17.63 2.37 1.21 3.37 2.12 1.59 1.45 2.65 3.24 1.56 5.3-1.21 2.28-3.41 1.79-5.28.99-4.14-1.78-7.89-4.26-11.58-6.82-6.2-4.29-6.8-4.23-12.35.69-3.15 2.79-3.55 5.75-1.39 9.28 3.13 5.11 7.64 8.72 12.61 11.83 3.95 2.47 7.84 5.08 11.99 7.14 6.32 3.14 11.49 7.21 14.04 14.46 2.1 6.41 2.02 12.77 2.81 19 .32 2.5.36 5.25 2.33 6.91 4.12 3.49 6.39 7.93 7.91 12.95.37 1.22.99 2.51 2.88 2.94 3.34 2.53 6.67.42 10.08 1.05.26 4.92.22 9.63.11 14.77" class="st422"/><path d="M395.69 361.56c1.88-1.34 1.07-3.31 1.55-4.81 1.37-4.27 4.58-5.14 7.28-1.56 2.58 3.42 4.45 7.36 6.6 11.09.83 1.44 1.26 3.4 2.84 3.99 6.56 2.48 8.76 8.43 11.1 14.03 5.52 13.21 12.04 25.91 18.46 38.68 3.52 7 5.61 14.49 7.93 21.91.44 1.39 1.34 3.11-.67 3.81-1.7.59-2.73-.96-3.48-2.24-2.6-4.43-5.06-8.95-7.67-13.38-.62-1.04-1.05-3.09-2.6-2.48-1.84.72-.67 2.46-.36 3.85 1.63 7.41 5.64 14.14 6.12 21.93.15 2.4.87 4.6.45 7.21-.77 4.76.45 9.24 5.03 12.52-1.21 2.95-2.8 5.74-4.62 8.78-2.83 1.52-3.98-.3-4.8-2.15-3.16-7.15-6.9-14.14-8.24-21.92-1.36-7.9-5.98-14.43-8.47-21.83-4.73-14.04-9.59-28.04-14.25-42.1-.6-1.81-.79-4.01-3.32-4.5-1.03 1.68.04 3.28 0 4.87-.02 1.14.28 2.49-1.17 2.95s-2.09-.72-2.63-1.74c-1.47-2.81-2.54-5.8-3.64-8.76-1.53-4.11-3.6-7.86-6.82-11.37.24-2.67 1.36-4.72 2.74-7.04 2.33-2.01 3.78-.05 5.84.96-.72-2.86-1.64-5.26-2.56-7.99-.36-.95-.48-1.65-.64-2.71" class="st421"/><path d="M343.9 148.38c12.38-20.19 27.98-37.25 47.58-49.56 18.43-11.57 39.5-17.34 61.12-20.45 38.1-5.49 76.02-4.92 113.63 3.8 12.51 2.9 24.4 7.46 35.89 13.41 21.66 11.22 37.09 28.78 51.02 48.06 1.15 1.59 2.31 3.18 3.54 5.1-2.42 2.11-4.25.3-6.07-.94-2.3-1.57-4.48-3.31-7.64-4.07-5.33-4.36-9.23-9.6-13.78-14.22-26.11-26.53-57.85-41.81-94.46-46.88-30.26-4.19-60.44-3.56-90.2 4.19-33.3 8.68-60.71 26.69-82.98 52.75-1.08 1.27-2.15 2.54-3.81 3.78-3.29.98-5.63 2.88-8.16 4.46-1.73 1.08-3.5 2.89-5.68.57" class="st423"/><path d="M414.07 330.87c-3.81-.46-7.26-1.12-11.06-1.75-1.07-2.67-1.38-5.58-4.01-7.35-1.25-.84-2.68-1.64-1.77-3.54.84-1.78 2.54-1.29 3.96-1.31 11.02-.14 21.83 1.71 32.65 3.54 16.13 2.72 32.21 4.65 48.09-1.59 12.06-4.73 24.31-4.57 36.31.08 15.75 6.1 31.67 4.19 47.62 1.58 10.66-1.74 21.29-3.66 32.14-3.59 1.7.01 3.88-.81 4.84 1.46.94 2.21-1.22 2.77-2.36 3.8-1.85 1.67-2.58 3.82-2.97 6.58-3.77.02-6.91 2.21-10.83 2.28-3.33-5.2-7.95-4.92-12.96-4.09-23.34 3.89-46.54 8.36-69.14 15.48-3.14.99-6.18.94-9.31-.05-22.77-7.17-46.13-11.68-69.65-15.51-4.38-.71-8.75-1.3-11.55 3.98" class="st424"/><path d="M508.62 511.72c.63 15.59-.65 30.86-1.23 46.16-.37 9.81-.89 19.62-1.26 29.43-.81 21.63-1.5 43.26-2.35 64.88-.94 23.95-2.01 47.89-3.11 72.3-.28.57-.48.67-.97.62-1.05-17.12-1.88-34.07-2.56-51.03-1.5-37.92-2.91-75.85-4.37-113.77-.61-15.8-1.27-31.6-1.82-47.86 5.76-2.78 11.54-1.6 17.67-.73" class="st425"/><path d="M599.78 179.87c2 1.77 3.81 3.34 5.9 5.05 1.96 1.13 3.55 2.21 5.07 3.92.23.23.23.22.23.23 8.51 7.12 12.88 16.2 13.5 27.31.24 4.35 2.84 8.12 4.29 12.19.78 2.18 2.03 4.22 1.72 7.02-.9 1.37-2.09 1.43-3.2 1.75-5.66 1.61-7.59 6.08-4.46 10.93 3.4 5.28 5.48 11.21 8.74 16.95 1.03 9.14-.87 17.98.84 26.69 1.12 5.7-.24 10.84-3.26 16.03-2.62 1.01-3.11-.88-3.82-2.3-1.33-2.68-2.3-5.52-3.07-8.4-.66-2.51-2.16-3.58-4.99-3.63-2.04-2.97-.47-4.36 1.91-5.52 4.57-2.24 5-3.35 3.23-8.05-2.5-6.62-7.07-11.89-11.46-17.69-.36-4.19-.23-8.04 1.02-11.67 3.07-8.9 2-17.67-.61-26.39-4.67-15.59-10.29-30.82-17.61-45.78.63-1.12 1.5-1.23 2.84-.7.39.25.89.25 1.13.25.79.54 1.32 1.08 2.06 1.81" class="st426"/><path d="M394.77 184.27c1.8-1.36 3.34-2.52 5.07-3.94 1.83-1.67 3.23-3.65 6.19-2.46-7.15 16.38-13.8 32.77-18.28 49.96-1.91 7.32-2.44 14.64.11 22 1.25 3.62 1.4 7.47 1.35 11.74-1.14 3.72-4.23 5.49-5.95 8.31-1.97 3.24-4.18 6.34-5.57 9.91-1.9 4.88-1.51 5.93 3.32 8.36 2 1 3.24 2.26 2.32 4.96-4.07.27-6.14 1.85-6.69 5.99-.38 2.83-1.21 5.96-4.82 7.34-4.08-2.81-5.2-6.74-4.51-10.98 1.59-9.64.32-19.35 1.1-29.39 1.85-5.67 4.6-10.56 7.29-15.38 4.72-8.45 3.82-11.44-5.73-14.36-.67-1.03-.87-1.93-.5-2.66 4.81-9.54 5.61-20.26 8.87-30.25 1.85-5.67 5.55-10.09 10.4-14.08.28-.27.28-.28.28-.27 1.78-1.61 3.19-3.63 5.75-4.8" class="st426"/><path d="M406.44 286.39c4 .14 5.8-2.86 7.72-5.2 2.42-2.95 4.46-4.25 7.66-1.02 2.04 2.07 4.55 1.96 7.38 1.03 9.54-3.16 17.9-8.66 27.14-13.11 1.88 7.92 2.64 16.01 4.92 23.9 1.21 4.2-1.49 8.63-2.43 12.95-.33 1.53-1.93.96-3 .77-16.24-2.77-32.47-5.63-49-5.86-3.05-.04-3.17-1.57-2.61-3.88.73-3.07 1.38-6.16 2.22-9.58" class="st419"/><path d="M543.23 268.46c6.44 2.81 12.73 6.11 19.11 9.23 2.81 1.37 5.87 2.22 8.71 3.55 2.8 1.31 5.3.81 7.31-1.19 3.01-3 4.96-1.82 7.29.94 1.84 2.17 3.4 5.09 7.35 5.08 1.21 3.4 1.96 6.81 2.84 10.18.68 2.62-.21 3.59-2.92 3.63-16.35.23-32.4 3.02-48.44 5.86-2.67.47-3.36-.49-3.96-2.87-1.37-5.45-2.4-10.6-.55-16.37 1.82-5.64 2.17-11.74 3.26-18.04" class="st419"/><path d="M418.21 169.5c-1.5-3.14 3.88-3.72 1.94-7.13.99-3.45 3.25-1.81 4.6-1.02 4.92 2.9 8.6 6.79 8.67 13.04.19 18.16-1.7 36.18-3.57 54.2-.31 3-1.14 5.96-2.8 8.47-3.53 5.34-3.79 12.05-7.7 17.65-4.51 4.16-5.56 4.22-10.81.62-.71-2.7-1.14-5.09-1.54-7.89 2.68-.61 3.46-1.97 3.96-4.7 2.7-14.61 4.73-29.29 5.86-44.48 1.26-5.42 4.18-9.71 6.11-14.41 2.71-6.65 1.34-10.82-4.72-14.35" class="st427"/><path d="M591.89 254.64c-3.19-.14-6.08 4.48-9.58.56-1.72-1.34-3.1-2.54-3.76-4.34-4.31-11.65-9.48-22.97-9.79-35.84-.32-13.13-2.47-26.18-2.13-39.36.18-7.15 5.3-13.63 11.97-14.76-.5 3.39 2.48 5.09 3.41 7.99-6.27 4.1-7.75 8.53-4.83 15.24 1.9 4.37 3.88 8.7 5.84 13.41.36.85.45 1.42.68 2.25.21.68.27 1.11.35 1.87-.45 14.24 3.02 27.65 5.12 41.24.31 2 .17 4.17 3.54 3.9-.03 2.63-.37 5.04-.82 7.84" class="st427"/><path d="M556.69 485.5c5.32-8.36 9.43-16.98 10.2-26.77.31-3.97 1.96-7.43 3.38-10.86 7.32-17.63 13.69-35.6 19.81-53.67.53-1.56 1.34-3.04 2.1-4.52.93-1.81 2.31-1.3 3.84-.81 1.62.51 2.09 1.45 1.83 2.98-.26 1.51-1.66 3 .2 4.91 2.54-3.43 3.38-7.45 4.94-11.14 1.3-3.09 1.75-7.01 6.55-7.61 1.09 1.7 1.8 3.41 2.53 5.48.34 1.07.17 1.87-.56 1.92-4.58.32-5.91 3.79-7.18 7.28-3.99 10.94-8.91 21.56-11.3 33.05-.24 1.15-.54 2.36-1.33 3.21-8.45 9.05-10.67 20.97-14.35 32.09-3.17 9.6-8.39 18.1-12.61 27.12-.83 1.77-1.86 3.67-4.76 3.13-1.28-1.93-2.23-3.7-3.29-5.79" class="st426"/><path d="M389.88 378.3c5.26 1 6.04 5.73 7.86 9.46 1.86 3.81 3.18 7.87 5.7 11.66-.23-1.92-.38-3.85-.71-5.75-.21-1.22-1.38-2.61.48-3.39 1.61-.68 2.92.19 3.9 1.43 2.23 2.81 2.57 6.41 3.73 9.64 5.98 16.63 10.46 33.76 18.08 49.84 3.72 7.85 4.18 17.03 8.31 24.82 1.63 3.07 1.47 7.3 5.8 9.06-.62 2.18-1.63 4.3-2.87 6.68-.98 1.02-1.99 1.28-3.25 1.87-.8-.48-1.27-1.16-1.85-2.15-6.71-17.3-14.47-33.86-19.64-51.41-.33-1.11-.71-2.35-1.52-3.12-8.56-8.23-8.78-20.12-13.28-30.12-.27-.6-.39-1.27-.65-1.88-3.15-7.35-3.94-16.14-12.16-20.72-.11-2.38 1-3.98 2.07-5.92" class="st428"/><path d="M343.72 148.2c3.61 1.73 5.02-1.8 7.24-2.84 1.68-.79 2.87-2.64 5.47-2.3 1.34 2.15-.38 3.45-1.37 4.82-20.59 28.62-30.93 60.92-34.5 95.66-.48 4.62-.14 9.33-1.89 14.19-1.92 2.14-3.92 2.79-6.61 1.57-.61-18.02 1.72-35.43 6.03-52.59 5.23-20.83 13.46-40.38 25.63-58.51" class="st429"/><path d="M643.03 143.39c3.3-.82 5.38 1.19 7.51 2.84 1.69 1.31 3.26 2.65 5.85 2.82 14.17 20.25 22.47 42.74 27.57 66.56 2.94 13.72 4.1 27.63 4.4 42-2.27 2.23-4.27 1.32-6.54-.2-3.32-6.51-2.22-13.34-3.05-19.87-3.53-27.7-11.61-53.78-25.99-77.82-3.23-5.37-7.58-10.07-9.75-16.33" class="st429"/><path d="M408.15 255.49c3.14-.64 6.03 3.78 9.54-.29 4.11-1.21 3.87-4.98 5.52-7.89.67-1.01 1.34-1.63 1.58-2.88.32-1.26.66-2.13 1.7-2.98 6.2-2.98 7.98-7.14 6.61-15.57-.63-3.44-.1-6.35 1.36-9.52.72-.68 1.25-.82 2.19-.53.76 2.42-.89 5.6 1.37 6.64 2.34 1.09 4.29-1.69 6.21-3.13 4.36-3.29 8.2-3.1 12.37 1.14 3.13 3.19.91 6.15-1.15 8.76-6.6 8.34-14.55 15.38-22.21 22.7-6.31 6.03-12.61 12.07-18.85 18.18-1.56 1.53-2.89 3.27-5.78 2.91-.43-5.69-.48-11.38-.46-17.54" class="st422"/><path d="M490.66 502.32c.93-9.07-4.71-14.91-9.26-21.11-2.23-3.04-1.66-4.02 1.84-4.71 11.23-2.19 22.4-2.18 33.63.02 3.82.75 3.86 2.08 1.64 4.75-2.11 2.54-3.9 5.36-5.95 7.95-2.82 3.55-2.63 7.74-2.84 12.32-6.2 4.04-12.44 3.8-19.06.78" class="st430"/><path d="M426.23 479.97c-5.32-3.49-7.48-10.03-13.28-13.1-1.22-.65-1.01-2.37-.94-3.69.26-5.41-1.94-9.64-6.11-12.93-4.02-3.16-6.26-6.88-7.08-12.31-1.08-7.25-3.09-14.52-7.08-20.96-1.05-1.7-1.89-3.59-1.17-5.65 1.35-3.84-.84-7.07-1.63-10.94 3.39-1.8 4.55 1.01 5.75 2.93 5.24 8.43 10.51 16.85 13.65 26.39 3.64 11.05 9.8 21.04 13.59 32.05 1.46 4.24 2.61 8.58 4.56 12.65.79 1.67.96 3.52-.26 5.56" class="st429"/><path d="M610.7 399.77c-1 4.39-3.64 8.36-1.11 13.06.4.74-.3 2.3-.85 3.28-4.72 8.36-7.28 17.36-8.43 26.84-.4 3.32-3.47 4.82-5.65 6.69-4.32 3.71-6.94 7.98-6.65 13.81.08 1.72-.19 3.29-1.9 4.29-5 2.91-7.44 8.26-11.75 12.3-2.3-1.93-1.2-4.22-.4-6.32 4.55-11.93 8.47-24.12 14.57-35.41.87-1.61 1.3-3.41 1.81-5.16 3.24-11.1 9.34-20.76 15.37-30.44 1.03-1.67 2.26-3.37 4.99-2.94" class="st429"/><path d="M611.2 399.68c-5 1.62-6.28 6.21-8.25 9.76-4.92 8.88-9.26 18-12.89 27.62-4.46 11.81-9.87 23.31-14.21 35.22-.85 2.32-2.02 4.55-1.81 7.55-.57 3.12-1.87 5.02-4.46 6.52-3.37 1.95-5.54 5.4-7.88 8.48-1.3-.76-1.48-1.96-1.97-3.35 1.56-.44 2.73-1.18 3.39-2.74 3.57-8.53 9.14-16.08 11.89-25.04 2.43-7.9 5.27-15.67 8.09-23.44 1.36-3.74 3.02-7.37 6.19-10.06 1.43-1.21 2.28-2.84 2.63-4.69 2.34-12.46 7.91-23.81 12.12-35.63 1.31-3.69 3.35-6.06 7.84-5.72 4.04 5.04 1.45 10.11-.68 15.52" class="st430"/><path d="M425.99 480.58c.62-6.47-3.14-11.39-4.85-16.82-2.66-8.46-6.24-16.67-10.74-24.42-1.37-2.36-1.57-5.38-2.5-8.03-3.77-10.66-9.72-20.18-15.81-29.6-.48-.75-1.59-1.1-2.75-1.67-2.44-5.07-5.07-10.05-1.66-15.89.53.14.81.93 1.05.92 6.54-.27 6.9 5.08 8.5 9.27 4.06 10.64 8.54 21.15 10.9 32.37.2.95.5 2.15 1.18 2.69 9.1 7.2 9.32 18.67 13.56 28.17 2.61 5.85 3.76 12.28 7.24 17.86 2.8 4.5 4.51 9.53 4.85 15.33-2.38-3.52-7.62-4.97-8.97-10.18" class="st430"/><path d="M686.29 290.81c-1.44 19.81-5.99 38.85-12.01 57.55-2.07 6.43-3.7 13.06-7.26 19.32-3.24 1.48-4.12-.55-4.65-3.41 7.79-19.26 12.08-38.98 15.25-59 .57-3.59.64-7.26 1.99-11.09 2.2-1.53 3.84-3.36 6.68-3.37" class="st431"/><path d="M333.15 368.33c-8.57-20.56-14.34-41.6-18.02-63.22-.64-3.76-1.12-7.54-1.6-11.71 2.36-1.42 4.06.19 6.26 1.18 1.51 1.59 1.52 3.3 1.73 4.94 2.55 19.68 7.17 38.88 13.18 57.77.66 2.06 1.25 4.14 2.64 6.35.4 3.25-.89 4.77-4.19 4.69" class="st431"/><path d="M416.71 198.15c1.46 14.38-1.59 28.56-4.15 42.8-.26 1.45-.32 2.93-.56 4.39-.24 1.52.87 3.64-1.21 4.37-1.96.69-1.45-2.38-3.44-2.63-3.01-5.11-3.05-10.2-1.6-15.74 2.93-11.2 6.62-22.12 10.96-33.19" class="st429"/><path d="M593.22 246.72c-2.35-.19-1.95 3.6-3.81 2.75-2.25-1.02-1.12-3.52-1.44-5.39-1.44-8.59-2.88-17.18-4.39-25.76-.92-5.25-.85-10.49.18-16.04 3.06 2 3.17 5.52 4.22 8.54 2.15 6.22 3.99 12.55 5.84 18.87 1.62 5.59 2.46 11.22-.6 17.03" class="st429"/><path d="M610.66 262.31c7.1 4.85 11.17 11.98 13.82 19.94 1.14 3.42.13 6.34-4.12 6.76-2.53.25-3.57 1.45-3.06 4.36.74 1.54.72 2.71.21 4.23-.37.45-.57.58-1.1.57-4.28-11.61-5.72-23.48-5.75-35.86" class="st422"/><path d="M382.44 294.13c.85-2.99.4-4.74-2.86-5.14-4.42-.54-5.16-3.53-3.91-7.2 2.58-7.6 6.68-14.24 13.15-19.65.98 10.8-.39 21.48-4.1 31.81-.41 1.15-.44 2.2-.68 3.69-.33.48-.55.58-1.07.47-1-1.28-.99-2.45-.53-3.98" class="st422"/><path d="M319.83 294.55c-2.29.64-3.83-.64-5.89-1.46-1.42-7.05-2-14.06-1.96-21.58.07-1.28.08-2.09-.08-3.21-.89-2.97-.52-5.71-.3-8.86 2.07-.2 3.89-.54 5.99-1.35 1.2.6 1.73 1.53 1.7 2.5-.33 11.2 2.03 22.33.54 33.96" class="st420"/><path d="M662.73 363.8c.42 2.35 1.64 3.55 3.88 4.2.06 3.61-1.87 6.56-3.77 11.24-7.61-19.88-19.19-35.79-32.94-50.56-.41-.8-.38-1.24.39-1.81 4.35.59 7.22 3.15 9.62 6.15 6.78 8.44 13.59 16.89 18.05 26.88.95 2.12 2.82 2.67 4.77 3.9" class="st425"/><path d="M332.85 368.51c2.02-.58 3.44-1.68 4.15-4.08 2.91-1.83 4.64-4.09 6.19-7.04 4.98-9.45 11.31-18.05 18.42-26.03 1.75-1.97 3.89-3.68 7.11-3.95.61.18.84.31 1.01.82-1.22 3.66-4.05 5.62-6.24 8.06-11.03 12.34-19.69 26.16-25.95 42.01-2.78-2.9-3.29-6.37-4.69-9.79" class="st425"/><path d="M686.72 290.59c-2.33.53-3.08 3.3-5.7 3.4-2.06-2.34-1.81-5.1-1.54-7.67.85-8.08 1-16.16.97-24.27-.01-1.49.15-2.98 1.25-4.67 2.18-.08 3.88 1.02 6.18.64 1.19 3.01.73 6.07.43 9.55-.31 1.23-.35 2.05-.34 3.17-.11 4.33-.23 8.35-.5 12.8-.32.94-.47 1.44-.5 2.24-.06 1.64-.11 3.02-.25 4.81" class="st430"/><path d="M490.29 502.39c6.24 1.14 12.38.99 18.93-.41.4 1.73.39 3.46.22 5.6-.28.85-.36 1.3-.38 2.1.04.79.06 1.23 0 1.99-5.77.32-11.46.32-17.59.32-.72-3.06-.99-6.12-1.18-9.6" class="st422"/><path d="M547.35 454.03c-.31-.4-.37-.9-.18-1.03 5.95-4.19 8.27-11.2 12.47-16.72.6.42 1.09.68 1.06.76-2.34 6.81-2.83 14.16-6.5 20.84-1.73-2.16-3.54-3.86-6.85-3.85" class="st425"/><path d="M382.66 297.98c.37.06.81.05 1.04.05-2.27 10.85-6.51 20.93-13.36 30.18-.53-.27-.87-.62-1.46-1.22 4.77-9.72 8.85-19.51 13.78-29.01" class="st431"/><path d="M630.95 326.73c-.44.59-.68.85-1.01 1.37-7.25-8.4-10.72-18.78-13.89-29.68.02-.39.47-.39.69-.38.97-.2 1.6.05 1.84.74 3.33 9.6 8.2 18.5 12.37 27.95" class="st431"/><path d="M395.96 364.35c3.89 2.11 3.13 6.49 5.11 10.31-3.45-.08-4.27-3.89-7.47-3.63.51-2.12 1.37-4.24 2.36-6.68" class="st419"/><path d="M611.47 436.76c.77 2.31 1.39 4.31 2.06 6.5-4.62-2.32-5.53-3.77-4.3-6.68.56-1.34 1.32-1.18 2.24.18" class="st429"/><path d="M387.44 440.06c.74-1.77.57-3.63 2.54-4.61 2.63 3.98.5 6.15-2.92 7.94-.97-1.1.32-2 .38-3.33" class="st429"/><path d="M499.31 725.4c.36-.5.63-.51 1.09-.47.5 4.06.75 8.09-.34 12.12-1.44-3.64-.64-7.47-.75-11.65" class="st424"/><path d="M606.05 369.63c-1.56-.23-3.76 2.27-4.72.13-.84-1.87.11-4.1 2.23-5.67 1.04 1.69 1.73 3.44 2.49 5.54" class="st419"/><path d="M621.05 416.95c.68 1.64 1.21 2.96 2.06 5.08-2.75-1.06-4.28-2.35-5.18-4.21-.5-1.03-.22-2.58.79-3.08 1.6-.78 1.45 1.23 2.33 2.21" class="st429"/><path d="M378.3 418.21c.99-1.44 1.09-3.1 2.61-3.75 1.87 3.97 1.87 3.97-3.16 7.2-.98-1.19.31-2.09.55-3.45" class="st429"/><path d="M406.54 177.96c-2.48-.48-3.94 1.37-6.15 2.06.32-3.62 3.15-3.82 6.44-3.91.24.57.08 1.11-.29 1.85" class="st427"/><path d="M575.02 503.14c-1.9-1.33-4.56-2.39-1.95-5.49 1.44 1.17 1.7 2.78 2.27 4.59.02.5-.03.66-.32.9" class="st425"/><path d="M424.66 502.82c.45-1.92.65-3.76 2.22-5.1 2.51 2.41.63 3.75-1.36 5.31-.45.14-.62.09-.86-.21" class="st425"/><path d="M370.51 398.41c.53-1.79.84-3.68 2.78-4.29.15-.05.73.59.76.94.19 2.34-1.9 2.67-3.54 3.35" class="st429"/><path d="M628.32 398.2c-1.4-1.04-3.01-1.64-2.27-3.53.11-.29.95-.65 1.04-.56 1.22 1.19 2.54 2.37 2.34 4.33-.01.06-.24.14-.37.12-.15-.01-.3-.12-.74-.36" class="st429"/><path d="M588.04 484.64c-.19.29-.39.3-.5.2-1.21-1.01-3.02-1.69-2.28-3.8.11-.33 1.01-.75 1.1-.67 1.11 1.06 1.56 2.44 1.68 4.27" class="st425"/><path d="M412.36 484.92c-.34-.2-.44-.54-.39-.85.24-1.43.49-2.89 1.92-3.66.13-.07.85.51.95.88.5 1.88-1.21 2.48-2.48 3.63" class="st425"/><path d="M601.05 463.65c-1.62-.81-3.75-1.71-2-4.95 1.22 1.69 1.92 3 2 4.95" class="st425"/><path d="M399.35 463.88c-.32-.16-.43-.49-.38-.8.24-1.41.47-2.86 1.84-3.67.12-.07.84.47.93.81.48 1.84-1.18 2.46-2.39 3.66" class="st425"/><path d="M596.91 177.69c-.76.38-1.58.39-2.83.44-.7-.45-.98-.94-1.29-1.7 1.41-.17 3.13-1.02 4.12 1.26" class="st427"/><path d="M436.75 494.06c.27-1.4 1.11-1.99 2.76-2.03.13 1.7-.5 2.94-2.76 2.03" class="st430"/><path d="M688.18 270.79c-1.37-.56-1.5-1.5-.27-2.67.82.67.74 1.54.27 2.67" class="st431"/><path d="M311.67 268.29c1.48.36 1.6 1.29.59 2.6-.95-.55-.89-1.43-.59-2.6" class="st431"/><path d="M509.27 509.81c-1.12-.3-1.42-.9-.21-1.75.29.46.34 1 .21 1.75" class="st425"/><path d="M687.16 285.83c-1.17-.37-1.28-1-.08-1.77.25.47.26 1.02.08 1.77" class="st431"/><path d="M583.87 199.74c-.3-.21-.57-.72-.84-1.53.29.21.58.71.84 1.53" class="st429"/><path d="M626.64 408.34c-.39-.39-.98-1.11.41-.69.06.23-.25.54-.41.69" class="st288"/><path d="M575.25 502.74c.3.23.44.62.58 1.01-.27.01-.54.01-.93-.25-.13-.28.19-.6.35-.76" class="st425"/><path d="M425.07 503.06c-.17.36-.49.57-.82.77-.03-.28-.07-.56.12-1.04.22-.21.54.11.7.27" class="st425"/><path d="M373.04 408.03c.04-.37.23-.58.43-.79.1.28.2.56.18 1.05-.13.2-.45-.1-.61-.26" class="st288"/><path d="M587.96 485.03c.23.13.71.3.7.36-.11.49-.35.5-.63-.17-.02-.25-.05-.21-.07-.19" class="st425"/><path d="M412.01 484.99c-.15.25-.28.51-.41.77-.01-.25-.01-.5.22-.74.24.02.2-.01.19-.03" class="st425"/><path d="M600.95 464.03c.15.15.32.28.49.41-.1-.05-.21-.09-.38-.3-.06-.17-.09-.13-.11-.11" class="st425"/><path d="M399.02 464c-.09.01-.18.04-.11.06.15-.02.12-.05.11-.06" class="st425"/><path d="M369 327.14c.47.18.7.45.98.99.06.27-.11.4-.21.45-.26-.09-.41-.23-.79-.59-.22-.4-.23-.58.02-.85" class="st425"/><path d="M413.86 331.41c-.29-5.13 2.24-6.96 6.76-6.47 14.21 1.54 28.18 4.49 42.13 7.46 11.71 2.49 23.3 5.48 34.65 9.29 2.02.68 3.85.4 5.83-.24 23.78-7.67 48.24-12.32 72.84-16.3 7.25-1.17 9.03-.13 10.17 5.53-.72 2.79-2.65 4.33-4.82 3.9-9.2-1.82-17.83 1.2-26.5 3.03-17.05 3.6-34.22 6.8-50.65 12.93-3.06 1.14-6.48.77-9.76-.36-21.9-7.56-44.6-11.81-67.32-15.95-2.56-.47-5.23-.48-7.91.24-2.26.62-4.19-.51-5.42-3.06" class="st260"/><path d="M460.49 393.6c1.62-2.31 3.39-3.18 5.64-1.61 1.19.83 1.63 2.09 1.12 3.49-.63 1.75-1.99 2.69-3.82 2.51-2.35-.22-3.52-1.58-2.94-4.39" class="st432"/><path d="M533.48 392.32c2.48-1.83 4.3-1.17 5.77.84.88 1.2.78 2.52-.2 3.64-1.25 1.44-2.89 1.66-4.48.76-2.03-1.15-2.64-2.86-1.09-5.24" class="st432"/><path d="M465.06 382.25c.1 2.6-.53 4.37-3.09 4.47-1.68.06-2.77-.96-3.01-2.64-.24-1.66-.26-3.43 1.51-4.3 2.24-1.11 3.76-.2 4.59 2.47" class="st432"/><path d="M540.12 385.91c-3.07 1.56-4.73.61-5.18-2.34-.23-1.52.08-2.96 1.58-3.82 1.1-.64 2.28-.66 3.22.14 1.95 1.66 1.73 3.68.38 6.02" class="st432"/><path d="M544.18 368.75c1.01 2.54.51 4.24-1.83 4.98-1.54.49-2.94-.03-3.8-1.45-.91-1.53-1.09-3.24.34-4.46 1.77-1.49 3.6-1.25 5.29.93" class="st432"/><path d="M461.67 368.5c.68 2.56.24 4.4-2.09 5.2-1.56.54-2.99.1-3.88-1.4-.88-1.49-.53-2.98.55-4.15 1.66-1.78 3.48-1.65 5.42.35" class="st432"/><path d="M541.57 357.42c2.05-1.5 3.74-1.42 4.94.51.87 1.4.68 2.9-.54 4.11-1.1 1.08-2.43 1.15-3.66.39-1.94-1.2-2.04-2.89-.74-5.01" class="st432"/><path d="M459.32 359.98c-.75 2.38-2.16 3.36-4.27 2.67-1.64-.54-2.2-1.95-1.96-3.61.21-1.49 1.11-2.48 2.6-2.61 2.26-.21 3.34 1.11 3.63 3.55" class="st432"/><path d="M543.37 345.91c2.11-1.83 3.91-1.69 5.4.2.85 1.08 1.19 2.4.38 3.71-.95 1.53-2.45 1.69-3.94 1.22-2.43-.78-2.66-2.66-1.84-5.13" class="st432"/><path d="M454.12 344.61c2.89.62 3.47 2.36 2.75 4.57-.53 1.63-1.95 2.15-3.6 2.03-1.51-.11-2.62-.85-2.76-2.37-.2-2.3.92-3.79 3.61-4.23" class="st432"/><path d="M534.01 400.28c2.8.64 3.49 2.29 2.83 4.52-.42 1.41-1.57 2.08-3.05 1.99-1.26-.08-2.23-.77-2.58-1.97-.66-2.24 0-3.88 2.8-4.54" class="st432"/><path d="M468.87 402.4c.36 2.45-.32 4-2.53 4.38-1.45.24-2.61-.49-3.14-1.86-.58-1.5-.43-3.02.97-3.99 1.84-1.29 3.4-.72 4.7 1.47" class="st432"/><path d="M675.09 275.8c-3.86.41-3.56-2.58-4.06-4.61-4.09-16.71-7.56-33.59-12.21-50.13-3.89-13.82-7.07-28.18-17.08-39.4-7.51-8.42-14.56-17.2-21.13-26.37-1.23-1.72-2.99-2.74-5.25-3.44-5.58-1.72-8.79-6.89-13.2-10.36-4.54-3.57-8.74-7.61-13.3-11.2-2.27-1.78-3.51-4.08-1.53-6.91 2.18-3.13 1.81-6.7 1.59-10.15-.22-3.48-3.34-4.23-4.67-1.98-3.81 6.43-9.63 4.69-15.03 4.79-7.42.14-14.87-.44-22.25.14-11.94.95-23.4-2.26-35.06-3.49-10.53-1.11-21-1.05-31.2.85-14.52 2.7-28.92 2.96-43.55 1.96-3.99-.27-8.22.46-12.36.6-3.37.11-6.34-.27-7.77-3.94-.62-1.6-1.93-2.27-3.61-1.96-2.12.39-2.36 2.02-2.39 3.8-.05 3.33-.28 6.68 1.79 9.63 1.52 2.16.98 4.22-.83 5.78-8.04 6.9-15.49 14.85-24.45 20.25-10.88 6.56-16 17.67-24.3 26.18-17 17.44-20.98 40.45-26.18 62.9-2.58 11.11-5.36 22.16-8.21 33.2-.4 1.54-.22 3.92-3.23 4.09-2-1.12-1.8-2.89-1.86-4.51-.63-17.36.75-34.57 4.49-51.54 6.21-28.17 17.37-54.05 35.65-76.64 12.29-15.18 27.01-27.45 43.95-37.08 2.42-1.38 4.84-3 8.26-2.79 11.72 4.03 22.64 1.3 33.93-.91 17.6-3.44 35.34-6.67 53.39-6.86 6.02-.06 11.91 1.33 17.82 2.32 7.4 1.24 14.87 1.86 22.3 2.78 6.94.87 13.66 2.96 20.27 5.21 2.67.91 5.19 1.34 7.73.08 3.55-1.77 7.56-.95 11.57-2.33 3.67-.87 6.12 1.15 8.65 2.62 31.84 18.47 55.04 44.51 69.07 78.67 11.35 27.64 16.42 56.35 15.45 86.18-.07 1.49-.04 3-1.2 4.57" class="st430"/><path d="M674.8 276.49c1.82-52.33-10.29-99.72-45.81-139.11-11.81-13.1-25.68-24.04-41.78-31.77-.87-.42-1.58-1.14-2.72-1.83-2.24.61-3.9-.06-5.59-.87-21.33-10.17-43.87-15.22-67.45-15.38-16.75-.11-33.53-.79-50.16 2.54-13.76 2.75-27.08 6.66-39.89 12.36-1.51.67-2.96 1.54-5.13 1.33-23 10.44-41.19 26.3-55.87 46.24-20.53 27.89-30.98 59.52-34.42 93.74-1.05 10.45-1.02 20.89-.83 31.82-.4 6.61.89 12.65 1.39 19.13 2.08 1.52 1.72 3.53 1.98 5.28 1.53 10.22 3.3 20.39 6.07 30.76.98 7.15 3.56 13.5 5.09 19.84 6.1-9.97 12.48-20.02 21.85-27.69 4.03-3.3 5.68-8.06 8.12-12.35.73-1.28.9-2.85 2.22-4.22 2.88-2.88 3.87-6.28 4.31-9.79.49-3.98 1.93-5.73 6.15-2.98.4 1.42.51 2.6.67 4.13-3.63 10.22-7.42 20.03-13.62 29.06-.12.31-.44.62-.53.82-7.06 3.75-11.23 10.13-15.5 16.2-3.98 5.64-8.66 10.95-10.47 17.95-.61 2.37-3.05 2.18-5.43 2.35-1.98-.19-2.54-1.48-2.93-2.69-6.84-21.45-12.58-43.15-14.78-66.03-1.31-12.33-1.93-24.33-1.72-36.82 1.53-23.58 4.83-46.36 13.04-68.21 6.29-16.77 14.67-32.37 25.65-46.93 15.33-19.2 33.38-34.67 55.16-45.57 21.23-10.62 43.7-16.46 67.41-18.03 26.03-1.73 51.82-1.02 77.14 5.89 34.98 9.54 63.74 28.59 86.57 57.19 18.66 25.09 30.25 52.83 35.57 83.29 1.74 9.98 2 20.08 3.41 30.5.16 12.45-.28 24.46-1.27 36.91-2.34 17.05-4.84 33.61-9.77 49.66-2.12 6.92-3.12 14.29-7.68 20.66-3.77.32-5.2-1.19-7-4.6-6.35-12.01-13.45-23.69-25.22-31.99-5.91-9.15-10.6-18.52-13.8-28.97-.15-1.45-.05-2.63.12-4.16 3.01-2.88 4.74-2.72 5.77 1.52 1 4.1 2.73 8.03 4.43 12.24 8.75 14.87 23.25 24.85 31.15 39.95.58 1.1 1.43 2.07 1.61 3.22 1.22-6.38 4.14-12.48 4.91-19.5 2.82-10.16 4.47-20.17 6.13-30.17.27-1.62.21-3.34 1.52-5.06 1.39-6.62 2.06-12.98 1.93-19.86" class="st432"/><path d="M427.28 241.78c-1.18.79-1.27 1.67-1.27 2.93-.54.87-1.07 1.4-1.79 2.14-.87 2.37-1.54 4.54-2.21 6.71-.55 1.78-1.46 2.95-3.77 1.75 3.13-9.31 8.31-17.74 10.12-27.26 1.54-8.07 2.26-16.37 2.53-24.59.31-9.6 1.69-19.16 1.19-28.81-.35-6.76-4.63-11.87-11.85-12.83-.71-.31-1.21-.88-1.96-1.59-5.38-6-4.62-15.18 2.19-20.34 13.8-10.43 28.56-18.43 46.59-19.36 10.77-.55 21.53-.69 32.28-1.09 14.36-.54 28.49.48 42.64 2.34 15.28 2.01 27.43 10.4 39.09 19.59 2.79 2.2 3.97 5.73 4.16 9.35.17 3.21-.09 6.35-2.95 9.05-1.07.62-1.86.94-2.96 1.28-7.63 2.98-11.55 8.46-11.27 16.34.64 18.45.86 37.02 5.09 55.07 1.77 7.56 5.79 14.6 8.83 22.23-2.97.75-4.12-1.26-4.8-3.6-1.37-4.65-2.86-9.1-7.38-11.84-1.98-1.2-2.38-3.64-2.64-5.7-.86-6.85-1.45-13.74-2.14-21.05-1.78-4.03-2.79-7.84-3.35-11.8-.65-4.6-.99-9.28-3.61-13.37-1.19-1.85-.88-3.8-.09-5.74 1.56-3.89 1.93-8.08 3.04-12.09.85-3.06-.15-5.14-3.11-6.39-9.82-4.12-19.02-9.54-29.01-13.33-8.51-3.23-9.12-4.56-8.99-13.73.08-5.95-1.28-6.72-7.29-6.86-8.62-.2-17.22.03-25.82-.02-4.85-.03-7.21 1.07-6.48 5.56 1.59 9.69-3.74 13.51-11.59 16.17-9.33 3.16-17.6 8.68-26.73 12.32-2.76 1.1-3.98 3.22-2.93 5.98 3.67 9.64 3.28 19.09.03 28.82-1.45 4.35-1.94 9.06-3.8 13.74-.24.75-.24 1.19-.24 1.97.06.78.09 1.22.04 2-.37 3.38-.71 6.43-1.04 9.9-1.24 3.95-.05 7.95-2.18 11.29-1.17 1.79-2.54 3.37-4.57 4.86" class="st428"/><path d="M333.85 332.37c-3.81-12-5.79-24.15-7.16-36.85 2.85-.59 2.79-3.07 3.2-4.81 3.15-13.34 6.19-26.7 9.19-40.07.97-4.32 4.74-6.2 7.95-3.61 1.99 1.61 2.98.7 3.93-.89 1.31-2.21 2.5-4.49 4.13-7.45 1.46 3.58-.99 5.56-1.45 7.9-.5 2.57-1.71 4.96-1.64 7.72.06 2.7 1.33 2.59 3.53 1.77 2.36 2.05 2.4 5.13 4.2 7.76 1.11 3.82-.17 6.98-1.47 9.99-4.94 11.41-8.53 23.32-13.21 34.84-2.52 6.2-4.39 12.81-6.47 19.26-.7 2.09-1.14 4.76-4.73 4.44" class="st427"/><path d="M672.76 295.99c-.46 12.12-3.07 23.87-6.08 35.91-3.14 1.46-4.17-.75-4.77-2.78-1.88-6.34-4.15-12.58-6.25-18.8-2.35-6.98-5.36-13.85-7.9-20.84-2.83-7.79-6.26-15.36-8.43-23.78.87-3.3 3.12-5.48 4.54-8.47 3.87.71 6.29.69 4.33-4.19-.76-1.9-.72-4.12-1.22-7.32 2.86 2.96 4.73 3.82 7.57.94 1.74-1.76 4.7-.51 5.46 2.73 3.22 13.66 7.33 27.1 9.93 40.91.4 2.07.29 4.34 2.82 5.69" class="st427"/><path d="M582.35 160.02c4.49-12.1-.1-17.29-7.52-22.43-13.16-9.11-27.36-14.54-43.7-15.9-11.93-.99-23.76.11-35.55-.77-14.6-1.09-28.94.57-43.05 3.38-12.33 2.46-23.15 9.22-32.46 17.58-5.08 4.56-5.5 11.1-2.1 17.8-2.28.52-3.72-.28-4.03-2.86-.37-3.1-1.11-6.16-1.55-9.26-.23-1.6.62-2.92 1.77-3.93 6.99-6.16 14.51-11.57 22.95-15.61 2.43-1.16 4.81-2.28 5.04-5.56.12-1.82 1.74-1.95 3.23-2.46 6.33-2.17 12.78.15 19.13-.82 11.75-1.81 23.49-4.12 35.41-4 12.06.12 23.98 2.3 35.92 3.94 5.99.82 12.16-.84 18.17.91 1.08.32 2.93-.04 3.12 1.04 1.28 7.41 8.44 7.86 13.14 10.92 5.16 3.36 10.01 7.07 14.81 10.86 3.92 3.09 2.3 13.77-2.73 17.17" class="st427"/><path d="M359.28 264.58c-2.09-2.47-3.41-4.82-3.34-8.15 1.68-4.77 3.43-9.16 5.26-13.91.56-5.21 3.72-6.95 8.47-7.1 10.45 1.37 12.81 6.7 7.16 15.3-2.86 4.35-3.17 10.16-7.91 13.86-3.24 3.92-6.3 3.1-9.64 0" class="st260"/><path d="M644.08 256.67c-.3 3.3-1.18 5.99-3.91 8.11-2.79 3.01-5.57 3.12-8.7.46-5.91-5.42-7.24-13.02-10.86-19.28-2.74-4.74 1.79-9.48 8.96-10.3 5.19-.96 7.73 1.58 9.2 6.11 1.7 5.1 3.45 9.82 5.31 14.9" class="st260"/><path d="M370.1 235.24c-3.65 1.27-6.58 3.09-8.57 6.71-1.53-.51-1.6-1.57-1.05-2.77 6.05-13.23 10.4-27.25 17.68-39.87 2.29-3.97 4.76-8.84 10.5-10.25.32 2.31-1.63 3.32-2.92 4.77-5.37 5.99-8.67 12.85-8.69 21.02-.02 5.37-3.3 9.62-4.73 14.51-.56 1.89-1.43 3.7-2.22 5.88" class="st427"/><path d="M639.03 241.96c-2.37-2.69-4.57-5.42-8.72-6.23-1.33-2.77-2.12-5.49-3.34-8-2.93-6.01-3.94-12.47-4.97-18.97-1.22-7.7-6.2-13.3-10.99-19.34 6.95 3.12 11.95 8.97 14.28 15.9 3.76 11.14 9.42 21.39 13.5 32.34.49 1.3 1.78 2.54.24 4.3" class="st427"/><path d="M394.66 184.06c-1.04 2.04-2.53 3.99-5.29 4.96.26-2.84 1.93-4.59 5.29-4.96" class="st427"/><path d="M610.94 188.71c-2.28.26-3.33-1.6-4.82-3.35 2.34-.46 4.01.59 4.82 3.35" class="st427"/><path d="M599.94 179.74c-.87.25-1.66.01-1.92-1.36.87-.25 1.66-.01 1.92 1.36" class="st427"/><path d="M505.59 236.4c2.41 5.06-.49 8.71-3.14 12.28-1.27 1.71-3.43 1.81-4.77.12-2.65-3.36-5.35-6.87-3.59-11.98.11-.32.53-.52.7-.68 3.31-1.15 6.56.64 9.97-.36.28.19.62.52.83.62" class="st432"/><path d="M505.03 235.58c-.33.39-.79.24-.98.4-2.79 2.47-5.55 1.41-8.71-.01-.57-3.34.38-5.81 4.26-5.97 3.6-.16 5.51 1.49 5.43 5.58" class="st423"/><path d="M435.34 216.05c-1.04-.42-1.36-.95-.56-1.85.67-.15 1.11-.15 1.89-.15.33.44.33.89.33 1.67-.43.33-.88.33-1.66.33" class="st426"/><path d="M435.37 212c2.04-8.61.81-18.18 6.13-26.13.49-.73.62-1.62.12-2.36-2.71-4.02-2.11-8.99-3.8-13.25-1.88-4.74-.08-7.08 4.23-8.73 10.56-4.04 20.11-10.37 30.9-13.89 5.57-1.81 7.11-5.75 5.9-10.86-.6-2.55.27-4.42.94-6.63.81-2.68 2.25-3.44 4.83-2.76 4.09 1.08 8.16.97 12.29-.07 2.24-.56 4.63-.53 6.91.18 3.27 1.02 6.64.78 9.9.38 5.46-.66 8.33 2.04 7.61 7.64-1.11 8.53-.76 9.74 7.34 12.75 10.46 3.88 20 9.71 30.34 13.78 3.63 1.43 4.79 3.64 3.38 7.4-1.73 4.61-1.22 9.87-4.03 14.23-.33.51-.13 1.74.28 2.3 5.44 7.59 3.62 16.99 6.36 25.65-.32.34-.87.34-.93.17-4.12-12-16.54-13.74-25.13-20.17-5.07-3.8-10.2-7.38-13.53-12.91-2.27-3.77-2.11-7.22 1.55-10.13 1.81-1.44 3.56-2.97 5.4-4.35 2.99-2.25 5.09.42 6.94 1.82 3.85 2.93 8.02 5.27 12.18 7.66 1.57.9 3.84 2.71 5.15.16 1.25-2.43-.95-3.86-2.92-4.96-9.47-5.28-20.03-7.86-29.9-12.12-4.62-1.99-10.11-2.24-13.83-6.81-.97-2.32.65-3.38 1.51-4.71.85-1.31 1.69-2.73.42-4.07-1.3-1.37-2.76-.55-4.04.32-.96.65-1.8 1.48-3.27 1.91-2.9-.71-5.46-1.44-8.39.01-2.15-.04-3.22-1.51-4.65-2.3-1.06-.58-2.21-.99-3.25-.07-1.24 1.1-.82 2.4-.13 3.63.8 1.42 2.32 2.46 2.18 4.63-1.67 3.32-4.75 3.82-7.49 4.91-11.54 4.58-23.42 8.29-34.62 13.73-.9.44-1.83.82-2.66 1.37-1.59 1.04-3.2 2.44-2.25 4.45 1.15 2.45 3.19 1.12 4.67.24 4.85-2.86 9.69-5.74 14.35-8.9 2.56-1.74 4.55-2.42 6.75.39.78 1 2.11 1.56 3.19 2.33 4.36 3.12 5.03 6.5 2.21 11.12-5.26 8.61-14.01 12.9-22.15 17.92-3.1 1.91-6.31 3.67-9.58 5.27-4.21 2.02-4.46 6.71-7.41 9.83" class="st426"/><path d="M503.8 143.27c2.95-1.96 5.21-6.74 8.91-3.36 4.06 3.71-1.04 6.24-2.79 9.44-1.18 1.57-2.28 2.79-3.31 4.09-4.15 5.25-9 5.32-13.08.16-.93-1.17-1.85-2.34-3.05-3.72-1.16-1.4-1.99-2.63-2.93-3.76-1.64-1.98-2.57-4.2-.47-6.17 2.05-1.92 4.29-1.13 6.13.75.7.71 1.37 1.44 2.35 2.35 2.8 1.93 5.31 4.12 8.24.22" class="st432"/><path d="M630.95 265.12c2.95.73 5.59 1.25 8.66-.01 5.27 13.11 10.22 26.24 15.03 39.41 2.83 7.74 5.46 15.55 8.14 23.33.59 1.71.8 3.62 3.34 4.31-.78 6.97-3.07 13.53-5.36 21.01-6.13-9.2-11.14-18.53-18.95-25.32-6.24-5.41-10.57-11.7-13.89-19.39 4.02-7.1 4.02-14.34 2.44-21.76-.17-.8-.49-1.67-.34-2.42 1.26-6.28-.34-12.63.93-19.16" class="st422"/><path d="M359.02 264.67c2.9 1.03 5.84 1.98 9.35.27 1.51.61 1.8 1.74 1.64 2.92-1.25 8.75.81 17.68-1.14 26.32-1.03 4.57.62 7.96 3 11.72-1.49 7.55-4.55 14.05-10.64 19-7.16 5.81-12.15 13.52-17.23 21.1-1.46 2.18-2.89 4.38-4.69 7.12-2.31-7.02-4.36-13.44-5.75-20.48.91-.61 2.06-.71 2.44-1.77 2.38-6.68 5.15-13.28 6.72-20.15.47-2.07 1.71-3.27 2.33-4.99 4.44-12.28 9.02-24.5 13.49-36.77.41-1.2.32-2.59.48-4.29" class="st422"/><path d="M427.38 242.04c3.67-4.5 4.48-10.27 6.24-15.91 2.96 6.85.32 13.6-6.24 15.91" class="st426"/><path d="M424.34 247.01c-.25-.86-.02-1.66 1.35-1.92.25.86.02 1.66-1.35 1.92" class="st426"/><path d="M416.04 104.06c16.42-9.3 34.29-14.65 52.85-16.57 28.51-2.95 57.05-3.12 85.1 4.5 10.25 2.79 20.05 6.7 29.89 11.46-1.43 1.99-16.38 5.67-18.48 4.79-9.85-4.11-20.21-6.33-30.76-7.02-7.96-.52-15.74-2.11-23.54-3.37-11.09-1.8-21.78.01-32.56 1.59-7.03 1.03-14.1 1.74-21.1 2.81-7.63 1.16-15.3 2.71-22.61 5.44-.78.29-1.84 1.18-2.23.94-5.03-3.19-11.34-1.21-16.56-4.57" class="st429"/><path d="M503.93 142.93c.16.45.12.62.03.75-3.85 5.47-3.85 5.47-7.97-.14 2.29-3.01 4.92-3.04 7.94-.61" class="st423"/></g></g></svg>
