<svg xmlns="http://www.w3.org/2000/svg" xml:space="preserve" id="Layer_1" x="0" y="0" viewBox="0 0 526 394"><style>.st0{fill-rule:evenodd;clip-rule:evenodd;fill:#fff}</style><switch><g><g><image width="2123" height="1855" style="overflow:visible" transform="matrix(.12 0 0 .12 263.527 163.96)"/><image width="1270" height="1217" style="overflow:visible" transform="matrix(.12 0 0 .12 313.808 179.2)"/><image width="248" height="248" style="overflow:visible" transform="matrix(.12 0 0 .12 376.087 313.72)"/><polygon points="379.2,326.4 400.8,326.4 400.8,330.6 379.2,330.6 379.2,326.4" class="st0"/><image width="248" height="248" style="overflow:visible" transform="matrix(.12 0 0 .12 376.087 269.08)"/><polygon points="380.5,280.9 387,280.9 387,274.4 393.1,274.4 393.1,280.9 399.5,280.9 399.5,287 393.1,287 393.1,293.5 387,293.5 387,287 380.5,287 380.5,280.9" class="st0"/><image width="248" height="248" style="overflow:visible" transform="matrix(.12 0 0 .12 258.127 65.08)"/><polygon points="263.5,76.9 270,76.9 270,70.4 276.1,70.4 276.1,76.9 282.5,76.9 282.5,83 276.1,83 276.1,89.5 270,89.5 270,83 263.5,83 263.5,76.9" class="st0"/><image width="248" height="248" style="overflow:visible" transform="matrix(.12 0 0 .12 258.127 106.96)"/><polygon points="262.6,119.8 284.1,119.8 284.1,123.9 262.6,123.9 262.6,119.8" class="st0"/><image width="2123" height="1855" style="overflow:visible" transform="matrix(.12 0 0 .12 7.088 161.44)"/><image width="1270" height="1217" style="overflow:visible" transform="matrix(.12 0 0 .12 58.807 10.72)"/><image width="1223" height="658" style="overflow:visible" transform="matrix(.12 0 0 .12 304.567 10.72)"/><image width="1178" height="669" style="overflow:visible" transform="matrix(.12 0 0 .12 300.248 90.04)"/></g></g></switch></svg>
