<svg xmlns="http://www.w3.org/2000/svg" xml:space="preserve" id="レイヤー_2" x="0" y="0" viewBox="0 0 380 297.133"><path id="bioicons-mortar-2-5fe118c1-path2" fill="#ffffff" stroke="#6d6d6c" stroke-miterlimit="10" stroke-width=".5" d="M189.896 260.133c133.104-5 146.897-112 146.897-112 9-10 6-31 6-31 0-78-152.896-80-152.896-80S37 39.133 37 117.133c0 0-3 21 6 31 0 0 13.793 107 146.896 112z"/><g id="bioicons-mortar-2-5fe118c1-g6" opacity=".73" transform="translate(-184 -119.867)"><image id="bioicons-mortar-2-5fe118c1-image4" width="319" height="179" overflow="visible" transform="translate(215 142)"/></g><g id="bioicons-mortar-2-5fe118c1-g10" opacity=".5" transform="translate(-184 -119.867)"><image id="bioicons-mortar-2-5fe118c1-image8" width="380" height="222" overflow="visible" transform="translate(184 195)"/></g><path id="bioicons-mortar-2-5fe118c1-path12" fill="none" stroke="#aaa9a9" stroke-miterlimit="10" stroke-width=".5" d="M191.079 59.133c35.104-1 74.896 11 74.896 11 67 22 43 54 43 54-33.793 40.165-117.896 40-117.896 40h-1s-83.896.165-117.896-40c0 0-24-32 43-54 0 0 39.793-12 74.896-11z"/><linearGradient id="bioicons-mortar-2-5fe118c1-SVGID_1_" x1="403.186" x2="448.168" y1="183.888" y2="241.461" gradientTransform="translate(-184 -119.867)" gradientUnits="userSpaceOnUse"><stop id="bioicons-mortar-2-5fe118c1-stop14" offset=".117" style="stop-color:#d2d2d2"/><stop id="bioicons-mortar-2-5fe118c1-stop16" offset=".226" style="stop-color:#eaeaea"/><stop id="bioicons-mortar-2-5fe118c1-stop18" offset=".333" style="stop-color:#fafafa"/><stop id="bioicons-mortar-2-5fe118c1-stop20" offset=".417" style="stop-color:#fff"/><stop id="bioicons-mortar-2-5fe118c1-stop22" offset=".55" style="stop-color:#ebebeb"/><stop id="bioicons-mortar-2-5fe118c1-stop24" offset=".818" style="stop-color:#b9b9b9"/><stop id="bioicons-mortar-2-5fe118c1-stop26" offset="1" style="stop-color:#949494"/></linearGradient><path id="bioicons-mortar-2-5fe118c1-path29" fill="url(#bioicons-mortar-2-5fe118c1-SVGID_1_)" stroke="#969595" stroke-miterlimit="10" stroke-width=".5" d="M343.812 5.133s10.188 11 9.188 16-83 82-83 82l-59 60s-60 6-93.401-10.81c-15.053-7.574 117.735-93.25 117.735-93.25L321 5.134s13-11 22.812 0z" style="fill:url(#bioicons-mortar-2-5fe118c1-SVGID_1_)"/></svg>
